PathFileType	4	(X/Y/Z)	pose_F01_0-94.trc
DataRate	CameraRate	NumFrames	NumMarkers	Units	OrigDataRate	OrigDataStartFrame	OrigNumFrames
30	30	9	21	m	30	75	94
Frame#	Time	CHip			RHip			RKnee			RAnkle			RBigToe			RSmallToe			RHeel			LHip			LKnee			LAnkle			LBigToe			LSmallToe			LHeel			Neck			Nose			RShoulder			RElbow			RWrist			LShoulder			LElbow			LWrist			
		X1	Y1	Z1	X2	Y2	Z2	X3	Y3	Z3	X4	Y4	Z4	X5	Y5	Z5	X6	Y6	Z6	X7	Y7	Z7	X8	Y8	Z8	X9	Y9	Z9	X10	Y10	Z10	X11	Y11	Z11	X12	Y12	Z12	X13	Y13	Z13	X14	Y14	Z14	X15	Y15	Z15	X16	Y16	Z16	X17	Y17	Z17	X18	Y18	Z18	X19	Y19	Z19	X20	Y20	Z20	X21	Y21	Z21	
75	2.5	-0.2522169096708488	1.8887329301191091	-0.5725603325262063	-0.26904064352878004	1.884810568722321	-0.5107569204758224																-0.23793976695535682	1.8932218028495034	-0.6382711734313955	-0.23789366185324998	1.729509622869192	-0.6657816589086438													-0.2564973216059619	2.0602420153820455	-0.5889759090110546	-0.24270315726680847	2.129920838439694	-0.5630776018889347	-0.279433316492417	2.0526390886186108	-0.5055345104922465	-1.6572536948426482	1.8771592578202874	0.984018622876489	-1.9176750889228604	1.8975395256848202	1.4762796740536217	-0.227069653937751	2.0703039685510958	-0.677782614608176	-0.19188022752447548	2.017433006052012	-0.6410343590901013	-0.18933084807732548	2.068262578394304	-0.5701108801626024
76	2.533333333333333	-0.25215140328799646	1.8873158868043736	-0.5721907566565019	-0.27006618175635255	1.8828311993338502	-0.5052136235667241																-0.23711240802294892	1.893587621251747	-0.6350457301369284	-0.23789366185324998	1.729509622869192	-0.6657816589086438													-0.2535306352436857	2.0573585616583934	-0.5878246043677369	-0.2396979614693099	2.1284743167855606	-0.5616514457271353	-0.2793305833385493	2.0510710763118505	-0.5049689532925311	-1.6572536948426482	1.8771592578202874	0.984018622876489	-1.9176750889228604	1.8975395256848202	1.4762796740536217	-0.2247757654434638	2.0690152211959596	-0.6795340832665026	-0.190993432735798	2.0111591987979662	-0.6456034884839474	-0.1939299168681361	2.064193902537148	-0.5382611133294701
77	2.566666666666667	-0.2533357385193708	1.88391795968575	-0.5749943048829419	-0.27127962621773205	1.8789099304291068	-0.5078895252160845																-0.23822240436601338	1.889306969897039	-0.6379525229512836	-0.23789366185324998	1.729509622869192	-0.6657816589086438													-0.24946266921588164	2.056114530527614	-0.5915767862229536	-0.23679642011115581	2.1272380101404753	-0.5609441251191903	-0.2774572687020072	2.0510647986255357	-0.5070965241265807	-1.6572536948426482	1.8771592578202874	0.984018622876489	-1.9176750889228604	1.8975395256848202	1.4762796740536217	-0.22169024900157897	2.067772381350887	-0.6783482039185633	-0.1939058401169603	2.0086885744612246	-0.6455905023635639	-0.19633117242886647	2.052197520070673	-0.5245848153650012
78	2.6	-0.2541913522081042	1.8890575600442663	-0.5787398064870257	-0.2710569981854407	1.8857996562374473	-0.5087757519474987																-0.23892357674770687	1.8935604899046738	-0.6413219970059587	-0.23789366185324998	1.729509622869192	-0.6657816589086438													-0.24741589768124214	2.0561729847380095	-0.5938241159643641	-0.23487937893815314	2.1259801404815963	-0.5624566720795218	-0.2753364037098693	2.0510802945394677	-0.5087698898392605	-1.6572536948426482	1.8771592578202874	0.984018622876489	-1.9176750889228604	1.8975395256848202	1.4762796740536217	-0.2196569437393347	2.065657965309782	-0.6801863512584034	-0.19319048428214344	2.00463254207146	-0.6421448736689837	-0.19271396725494924	2.039028399316375	-0.5175902110679567
79	2.6333333333333333	-0.2542860706312152	1.8898686450086921	-0.5789559035398485	-0.27221472089978926	1.8838641522218726	-0.5117737828254225																-0.23826463446126533	1.8930463683440046	-0.6384067213818471	-0.23789366185324998	1.729509622869192	-0.6657816589086438													-0.24736276340468033	2.0563302982694607	-0.5938710029353719	-0.2339047067143699	2.1233877579244798	-0.5590864956906755	-0.27628361043867605	2.0523657678949236	-0.5123555392102809	-1.6572536948426482	1.8771592578202874	0.984018622876489	-1.9176750889228604	1.8975395256848202	1.4762796740536217	-0.21979026855890588	2.0643526218837986	-0.6802529022538645	-0.19496545414440547	2.0081550643529393	-0.639692264006286	-0.19459796943302643	2.021063067727141	-0.4928079994706027
80	2.6666666666666665	-0.2561621245902204	1.8849992539932663	-0.5761093417857702	-0.27218653954522026	1.880796332793143	-0.5111646517458976																-0.23908965134787286	1.8882648749707465	-0.6406801911027664	-0.23789366185324998	1.729509622869192	-0.6657816589086438													-0.24735141720409795	2.0564640892678123	-0.593933572640472	-0.23292872404038226	2.121900556135989	-0.5554941781035353	-0.27439290467940103	2.0524267411089876	-0.5145767882823077	-1.6572536948426482	1.8771592578202874	0.984018622876489	-1.9176750889228604	1.8975395256848202	1.4762796740536217	-0.22180582115845987	2.0643360590746624	-0.67811482506273	-0.1987790810476242	2.0018672903593266	-0.6318818317807924	-0.19083846275872135	2.0064805200633637	-0.4766621093021085
81	2.7	-0.25408543430407277	1.8830278466881885	-0.5781083263912419	-0.2718192369391586	1.87859327669834	-0.5110383383526858																-0.23882938455687364	1.8881265574334634	-0.6406603073625798	-0.23789366185324998	1.729509622869192	-0.6657816589086438													-0.2472766433935472	2.0565821040334877	-0.5939586781899494	-0.23102648702965373	2.120493755736352	-0.5568920977356752	-0.27535027207278767	2.0526204886675163	-0.5176378172309137	-1.6572536948426482	1.8771592578202874	0.984018622876489	-1.9176750889228604	1.8975395256848202	1.4762796740536217	-0.2188089544217498	2.0632906227205536	-0.6768200784337757	-0.19702828342427436	1.9982293054595877	-0.6247412658114634	-0.18637160865371874	1.985862441187874	-0.4654501030964981
82	2.7333333333333334	-0.2529529401390381	1.8847314380750424	-0.5750554232172229	-0.2717687869448794	1.879027573408628	-0.5109461956211583																-0.23995210700978437	1.8886235216081855	-0.6354000282570644	-0.23789366185324998	1.729509622869192	-0.6657816589086438													-0.2473009091710599	2.0564619338622516	-0.5939063355355566	-0.23298045281073604	2.119311632285969	-0.5549404713008198	-0.27729243865065617	2.0525754485930072	-0.5155142523680872	-1.6572536948426482	1.8771592578202874	0.984018622876489	-1.9176750889228604	1.8975395256848202	1.4762796740536217	-0.21878117271053743	2.0631245955884667	-0.6767773974487137	-0.1978763434865673	1.994340892924611	-0.6176534666774898	-0.18666160011397745	1.9708728650970762	-0.47148726239227023
83	2.7666666666666666	-0.25413975324706545	1.8851892372680776	-0.5783980457280004	-0.2718594679684286	1.8805421385918308	-0.5113008566529363																-0.2389214767360696	1.8894842933306064	-0.6409467305211182	-0.23789366185324998	1.729509622869192	-0.6657816589086438													-0.2473028795731387	2.0566055697946175	-0.5939127122362697	-0.23208907473138876	2.1191390929015745	-0.5520260021750676	-0.27733187340606164	2.053855716930788	-0.5160292011841917	-1.6572536948426482	1.8771592578202874	0.984018622876489	-1.9176750889228604	1.8975395256848202	1.4762796740536217	-0.21878542443860677	2.0631493636240945	-0.6767925707504453	-0.19484759613162628	1.9939506031014036	-0.6074372905333677	-0.1835021998284498	1.964301745235418	-0.4686484119131677
